<svg xmlns="http://www.w3.org/2000/svg" xmlns:xlink="http://www.w3.org/1999/xlink" id="Layer_1" x="0" y="0" version="1.1" viewBox="0 0 2500 2500" xml:space="preserve" style="enable-background:new 0 0 2500 2500"><style type="text/css">.st0{fill:#ffdb2d}.st1{fill:#9a4c00}.st2{fill:#b38a65}.st3{fill:#a17852}.st4{fill:#ff4f19}.st5{fill:#fff5cb}.st6{fill:#ff3200}.st7{fill:#ffdba9}.st8{fill:#ff9a00}</style><path d="M2359.8,1821.4H140.2l36.1-99.9C265.7,1474.3,311,1215.6,311,952.8C311,551.5,637.4,225,1038.7,225h422.6	c401.3,0,727.8,326.5,727.8,727.8c0,262.9,45.3,521.5,134.7,768.7L2359.8,1821.4z" class="st0"/><path d="M2323.7,1721.5c-89.4-247.2-134.7-505.8-134.7-768.7c0-401.3-326.5-727.8-727.8-727.8H1250v1596.4h1109.8	L2323.7,1721.5z" class="st1"/><g><path d="M1142,2323.8H780.5c-194.2,0-352.1-158-352.1-352.1v-399.1h140.9v399.1c0,116.5,94.8,211.3,211.3,211.3H1142 V2323.8z" class="st2"/><path d="M2400.3,1304.9h-140.9V999.7c0-453.1-368.6-821.7-821.7-821.7h-375.6c-453.1,0-821.7,368.6-821.7,821.7v305.2 H99.7V999.7c0-530.7,431.8-962.5,962.5-962.5h375.6c530.7,0,962.5,431.8,962.5,962.5V1304.9z" class="st2"/></g><path d="M1437.8,37.2H1250v140.9h187.8c453.1,0,821.7,368.6,821.7,821.7v305.2h140.9V999.7	C2400.3,469,1968.5,37.2,1437.8,37.2z" class="st3"/><path d="M710.1,1633.6H430.7c-182.5,0-331-148.5-331-331s148.5-331,331-331h279.4V1633.6z" class="st4"/><path d="M1250,2013.9c-375.4,0-680.8-305.4-680.8-680.8V938.7c0-271.8,221.2-493,493-493h375.6	c271.8,0,493,221.2,493,493v394.4C1930.8,1708.5,1625.4,2013.9,1250,2013.9z" class="st5"/><path d="M1250,2441.1c-103.6,0-187.8-84.3-187.8-187.8c0-103.6,84.3-187.8,187.8-187.8s187.8,84.3,187.8,187.8	C1437.8,2356.9,1353.6,2441.1,1250,2441.1z" class="st4"/><g><path d="M2069.3,1633.6h-279.4v-662h279.4c182.5,0,331,148.5,331,331S2251.8,1633.6,2069.3,1633.6z" class="st6"/><path d="M1250,2065.5v375.6c103.6,0,187.8-84.3,187.8-187.8C1437.8,2149.8,1353.6,2065.5,1250,2065.5z" class="st6"/></g><path d="M1437.8,445.7H1250v1568.2c375.4,0,680.8-305.4,680.8-680.8V938.7C1930.8,666.8,1709.6,445.7,1437.8,445.7z" class="st7"/><path d="M2189,1211h-258.2c-401.3,0-727.8-326.5-727.8-727.8V225h258.2c401.3,0,727.8,326.5,727.8,727.8V1211z" class="st8"/></svg>