<svg xmlns="http://www.w3.org/2000/svg" xmlns:xlink="http://www.w3.org/1999/xlink" id="Layer_1" x="0" y="0" version="1.1" viewBox="0 0 2500 2500" xml:space="preserve" style="enable-background:new 0 0 2500 2500"><style type="text/css">.st0{fill:#8cc153}.st1{fill:#a0d468}.st2{opacity:.1;enable-background:new}</style><polygon points="949.5 35.5 541.2 742.7 977 994.4 1197.6 612.4 1530.7 35.5" class="st0"/><polygon points="1530.8 35.5 949.6 35.5 1374.8 772 1201.6 872 1498.1 933.2 1794.6 994.5 1889.9 707.1 1985.2 419.6 1810.7 520.4" class="st1"/><polygon points="328.5 2149.3 1145.2 2149.3 1145.2 1646 704.1 1646 37.9 1646" class="st0"/><polygon points="37.9 1645.8 328.5 2149.3 753.7 1412.7 926.9 1512.7 831.7 1225.3 736.5 937.9 440 999.1 143.4 1060.4 317.8 1161.1" class="st1"/><polygon points="820.3 1646 328.5 2133.5 328.5 2149.3 619 1646" class="st2"/><polygon points="2453.8 1647.3 2045.5 940 1609.6 1191.7 1830 1573.7 2163.1 2150.6" class="st0"/><polygon points="2163.1 2150.7 2453.7 1647.5 1603.2 1647.5 1603.2 1447.4 1402 1673.6 1200.6 1899.8 1402 2126 1603.2 2352 1603.2 2150.7" class="st1"/><polygon points="1771.9 1473 2440 1655.3 2453.7 1647.3 1872.6 1647.3" class="st2"/><polygon points="1139.5 713.1 963.2 43.3 949.6 35.5 1240.1 538.7" class="st2"/></svg>