<svg xmlns="http://www.w3.org/2000/svg" xmlns:xlink="http://www.w3.org/1999/xlink" id="Layer_1" x="0" y="0" version="1.1" viewBox="0 0 432.1 445.4" xml:space="preserve" style="enable-background:new 0 0 432.1 445.4"><style type="text/css">.st0{fill:#f2f2f2}.st1{fill:#54c0eb}.st2{fill:#ff7058}.st3{fill:#cdd6e0}.st4{fill:#40596b}</style><path d="M215.8,409.2c-102.6,0-186.4-83.8-186.4-186.4S113.2,36.4,215.8,36.4s186.4,83.8,186.4,186.4	S318.4,409.2,215.8,409.2z M215.8,55.2c-92.4,0-167.6,75.2-167.6,167.6s75.2,167.6,167.6,167.6s167.6-75.2,167.6-167.6	S308.1,55.2,215.8,55.2z" class="st0"/><g><circle cx="215.8" cy="45.8" r="28.2" class="st1"/><circle cx="215.8" cy="399.8" r="28.2" class="st1"/><circle cx="392.8" cy="222.8" r="28.2" class="st1"/><circle cx="38.8" cy="222.8" r="28.2" class="st1"/></g><path d="M302.1,195.4H129.4c-9.4,0-17.1,7.7-17.1,17.1v107.7c0,9.4,7.7,17.1,17.1,17.1H303c9.4,0,17.1-7.7,17.1-17.1	V212.5C319.2,203.1,311.5,195.4,302.1,195.4z" class="st2"/><path d="M162.8,195.4v-18c0-29.1,23.9-53,53-53s53,23.9,53,53v18h29.9v-18c0-45.3-36.8-82.9-82.9-82.9	s-82.9,36.8-82.9,82.9v18L162.8,195.4L162.8,195.4z" class="st3"/><rect width="165.9" height="40.2" x="132.8" y="245.9" class="st4"/><g><circle cx="265.4" cy="265.5" r="8.6" class="st0"/><circle cx="232" cy="265.5" r="8.6" class="st0"/><circle cx="199.5" cy="265.5" r="8.6" class="st0"/><circle cx="166.2" cy="265.5" r="8.6" class="st0"/></g></svg>